<svg width="58" height="16" viewBox="0 0 58 16" fill="none" xmlns="http://www.w3.org/2000/svg"><path fill-rule="evenodd" clip-rule="evenodd" d="M5.28947 0.0027308C5.80048 -0.000404692 7.3192 -0.140696 7.9625 2.08611C8.39583 3.58611 9.08611 6.04318 10.0333 9.45732H10.4191C11.4349 5.85789 12.1327 3.40082 12.5125 2.08611C13.1625 -0.163892 14.7875 0.00277489 15.4375 0.00277489L20.4524 0.0027813V16.0027H15.3411V6.5737H14.9983L12.149 16.0027H8.30339L5.45408 6.56671H5.11133V16.0027H0V0.0027813L5.28947 0.0027308ZM27.7922 0.0027813V9.43885H28.1999L31.6659 1.67964C32.3386 0.135532 33.7726 0.0027813 33.7726 0.0027813H38.7188V16.0028H33.5008V6.56671H33.093L29.695 14.3259C29.0222 15.863 27.5203 16.0028 27.5203 16.0028H22.5741V0.0027813H27.7922ZM56.7548 7.60608C56.027 9.72157 53.7412 11.2366 51.2105 11.2366H45.7383V16.0028H40.7762V7.60608H56.7548Z" fill="#3B3C40"/><path fill-rule="evenodd" clip-rule="evenodd" d="M51.4494 0.00292969H40.5156C40.7758 3.56507 43.7668 6.6145 46.863 6.6145H57.0992C57.6899 3.65394 55.6564 0.00292969 51.4494 0.00292969Z" fill="#9293B0"/></svg>