<svg width="20" height="20" viewBox="0 0 20 20" fill="none" xmlns="http://www.w3.org/2000/svg"><path d="M17.5385 0H12.2637C12.044 0 11.8242 0.0879123 11.6484 0.263736L3.12088 8.79121L0.659341 11.2527C-0.21978 12.1319 -0.21978 13.5385 0.659341 14.4176L5.58242 19.3407C6.02198 19.7802 6.59341 20 7.16483 20C7.73626 20 8.30769 19.7802 8.74725 19.3407L19.7363 8.35165C19.9121 8.17582 20 7.95604 20 7.73626V2.46154C20 1.0989 18.9011 0 17.5385 0ZM7.51648 18.1099C7.34066 18.2857 7.03297 18.2857 6.85714 18.1099L1.89011 13.1868C1.71429 13.011 1.71429 12.7033 1.89011 12.5275L3.73626 10.6813L9.31868 16.2637L7.51648 18.1099ZM16.3956 5.89011C15.7802 6.50549 14.7253 6.50549 14.1099 5.89011C13.4945 5.27472 13.4945 4.21978 14.1099 3.6044C14.7253 2.98901 15.7802 2.98901 16.3956 3.6044C17.011 4.21978 17.011 5.27472 16.3956 5.89011Z" fill="#FF9935"/></svg>