<svg width="19" height="19" viewBox="0 0 19 19" fill="none" xmlns="http://www.w3.org/2000/svg"><path d="M18.8772 14.1636C18.71 15.4339 18.0862 16.6 17.1221 17.4439C16.158 18.2879 14.9197 18.7521 13.6384 18.7498C6.19469 18.7498 0.138436 12.6936 0.138436 5.24981C0.136139 3.96852 0.60033 2.73021 1.44431 1.76615C2.28829 0.802093 3.45435 0.178223 4.72469 0.0110603C5.04592 -0.0281638 5.37123 0.0375558 5.65205 0.198409C5.93287 0.359262 6.15413 0.606621 6.28281 0.90356L8.26281 5.32387V5.33512C8.36133 5.56242 8.40202 5.81059 8.38124 6.05744C8.36047 6.3043 8.27887 6.54217 8.14375 6.74981C8.12687 6.77512 8.10906 6.79856 8.09031 6.822L6.13844 9.13575C6.84062 10.5626 8.33312 12.042 9.77875 12.7461L12.0606 10.8045C12.083 10.7857 12.1065 10.7681 12.1309 10.752C12.3384 10.6136 12.5771 10.5292 12.8254 10.5062C13.0737 10.4833 13.3238 10.5227 13.5531 10.6207L13.5653 10.6264L17.9819 12.6054C18.2793 12.7337 18.5273 12.9547 18.6887 13.2356C18.8501 13.5164 18.9162 13.842 18.8772 14.1636Z" fill="#3B3C40"/></svg>