<svg width="19" height="22" viewBox="0 0 19 22" fill="none" xmlns="http://www.w3.org/2000/svg"><path d="M6.75603 0.233105C7.08683 -0.0805514 7.6 -0.0762547 7.9308 0.237402C9.10134 1.35024 10.1998 2.54901 11.2261 3.8466C11.6926 3.22788 12.2228 2.5533 12.7953 2.00333C13.1304 1.68538 13.6478 1.68538 13.9828 2.00763C15.4502 3.42553 16.6929 5.29887 17.5665 7.07769C18.4275 8.83073 19 10.6224 19 11.8857C19 17.3682 14.7674 22 9.5 22C4.17321 22 0 17.3639 0 11.8814C0 10.2314 0.754911 8.2163 1.92545 6.22265C3.10871 4.19893 4.77969 2.08926 6.75603 0.233105ZM9.5721 17.8752C10.6451 17.8752 11.5951 17.5744 12.49 16.9729C14.2754 15.7097 14.7547 13.1832 13.6817 11.1982C13.4908 10.8115 13.0031 10.7857 12.7275 11.1123L11.6587 12.3712C11.3788 12.6977 10.8741 12.6891 10.6112 12.3497C9.91138 11.4474 8.66027 9.83615 7.94777 8.92096C7.68058 8.57722 7.17165 8.57293 6.90022 8.91666C5.46674 10.7427 4.74576 11.8942 4.74576 13.1875C4.75 16.1308 6.89598 17.8752 9.5721 17.8752Z" fill="#FF4345"/></svg>