<svg width="23" height="21" viewBox="0 0 23 21" fill="none" xmlns="http://www.w3.org/2000/svg"><path d="M0.5 1.59097C0.5 1.0788 0.912048 0.666748 1.42422 0.666748H3.17638C4.02358 0.666748 4.77451 1.15966 5.12495 1.89904H20.9522C21.965 1.89904 22.7044 2.86177 22.4386 3.8399L20.8598 9.70484C20.5324 10.914 19.4349 11.7574 18.1834 11.7574H7.07351L7.28146 12.8549C7.36618 13.29 7.74742 13.6058 8.19027 13.6058H19.2925C19.8046 13.6058 20.2167 14.0179 20.2167 14.53C20.2167 15.0422 19.8046 15.4542 19.2925 15.4542H8.19027C6.85786 15.4542 5.71414 14.5069 5.46768 13.2015L3.48061 2.76549C3.45365 2.61916 3.32657 2.51519 3.17638 2.51519H1.42422C0.912048 2.51519 0.5 2.10314 0.5 1.59097ZM5.42917 18.535C5.42917 18.2922 5.47698 18.0519 5.56987 17.8276C5.66276 17.6033 5.79892 17.3996 5.97056 17.2279C6.14221 17.0563 6.34598 16.9201 6.57024 16.8272C6.7945 16.7344 7.03487 16.6865 7.27761 16.6865C7.52035 16.6865 7.76071 16.7344 7.98497 16.8272C8.20924 16.9201 8.41301 17.0563 8.58465 17.2279C8.75629 17.3996 8.89245 17.6033 8.98534 17.8276C9.07823 18.0519 9.12604 18.2922 9.12604 18.535C9.12604 18.7777 9.07823 19.0181 8.98534 19.2423C8.89245 19.4666 8.75629 19.6704 8.58465 19.842C8.41301 20.0137 8.20924 20.1498 7.98497 20.2427C7.76071 20.3356 7.52035 20.3834 7.27761 20.3834C7.03487 20.3834 6.7945 20.3356 6.57024 20.2427C6.34598 20.1498 6.14221 20.0137 5.97056 19.842C5.79892 19.6704 5.66276 19.4666 5.56987 19.2423C5.47698 19.0181 5.42917 18.7777 5.42917 18.535ZM18.3682 16.6865C18.8585 16.6865 19.3286 16.8813 19.6753 17.2279C20.0219 17.5746 20.2167 18.0447 20.2167 18.535C20.2167 19.0252 20.0219 19.4954 19.6753 19.842C19.3286 20.1887 18.8585 20.3834 18.3682 20.3834C17.878 20.3834 17.4078 20.1887 17.0612 19.842C16.7145 19.4954 16.5198 19.0252 16.5198 18.535C16.5198 18.0447 16.7145 17.5746 17.0612 17.2279C17.4078 16.8813 17.878 16.6865 18.3682 16.6865Z" fill="white"/></svg>