<svg width="19" height="19" viewBox="0 0 19 19" fill="none" xmlns="http://www.w3.org/2000/svg"><path d="M8.59234 2.24454V12.1257H4.08136C2.99892 12.1257 1.96081 11.6957 1.1954 10.9303C0.429999 10.1649 0 9.12681 0 8.04437V6.3259C0 5.24345 0.429999 4.20534 1.1954 3.43994C1.96081 2.67454 2.99892 2.24454 4.08136 2.24454H8.59234ZM17.848 0.282904C17.6547 0.143835 17.4311 0.0526923 17.1957 0.0169882C16.9603 -0.0187159 16.7197 0.00204046 16.4939 0.0775466L9.44814 2.42412V11.9462L16.4939 14.2927C16.647 14.3443 16.8075 14.3704 16.969 14.3701C17.1665 14.3703 17.3621 14.3316 17.5446 14.2562C17.7272 14.1807 17.893 14.0701 18.0328 13.9305C18.1725 13.7909 18.2833 13.6252 18.359 13.4427C18.4346 13.2603 18.4735 13.0647 18.4735 12.8673V1.50302C18.4734 1.26463 18.4166 1.02969 18.3078 0.817562C18.1991 0.60543 18.0415 0.422177 17.848 0.282904ZM9.58046 17.9513C9.26507 18.3545 8.84279 18.6609 8.36173 18.8357C7.88068 19.0105 7.36019 19.0467 6.85958 18.9401C6.35896 18.8335 5.89834 18.5885 5.5302 18.2329C5.16206 17.8773 4.9012 17.4255 4.77734 16.9289L3.78922 12.9678C3.88591 12.9821 3.98367 12.9878 4.08136 12.985H9.41721L10.0702 15.6056C10.1723 16.0081 10.1812 16.4286 10.0963 16.8351C10.0114 17.2415 9.83502 17.6233 9.58046 17.9513Z" fill="#FF9935"/></svg>